<?xml version="1.0" encoding="UTF-8" standalone="no"?>
<!-- Created with Inkscape (http://www.inkscape.org/) -->

<svg
   xmlns:dc="http://purl.org/dc/elements/1.1/"
   xmlns:cc="http://creativecommons.org/ns#"
   xmlns:rdf="http://www.w3.org/1999/02/22-rdf-syntax-ns#"
   xmlns:svg="http://www.w3.org/2000/svg"
   xmlns="http://www.w3.org/2000/svg"
   xmlns:sodipodi="http://sodipodi.sourceforge.net/DTD/sodipodi-0.dtd"
   xmlns:inkscape="http://www.inkscape.org/namespaces/inkscape"
   width="297mm"
   height="210mm"
   viewBox="0 0 1052.3622 744.09448"
   id="svg2"
   version="1.1"
   inkscape:version="0.91 r13725"
   inkscape:export-filename="/home/mcarlise/fordiagram2.png"
   inkscape:export-xdpi="76.969696"
   inkscape:export-ydpi="76.969696"
   sodipodi:docname="forloop1.svg">
  <defs
     id="defs4" />
  <sodipodi:namedview
     id="base"
     pagecolor="#ffffff"
     bordercolor="#666666"
     borderopacity="1.0"
     inkscape:pageopacity="0.11764706"
     inkscape:pageshadow="2"
     inkscape:zoom="1.1575153"
     inkscape:cx="594.46104"
     inkscape:cy="361.1608"
     inkscape:document-units="px"
     inkscape:current-layer="layer1"
     showgrid="false"
     inkscape:snap-bbox="true"
     inkscape:snap-object-midpoints="true"
     inkscape:snap-grids="true"
     inkscape:snap-to-guides="true"
     inkscape:window-width="1920"
     inkscape:window-height="1091"
     inkscape:window-x="0"
     inkscape:window-y="31"
     inkscape:window-maximized="1" />
  <metadata
     id="metadata7">
    <rdf:RDF>
      <cc:Work
         rdf:about="">
        <dc:format>image/svg+xml</dc:format>
        <dc:type
           rdf:resource="http://purl.org/dc/dcmitype/StillImage" />
        <dc:title></dc:title>
      </cc:Work>
    </rdf:RDF>
  </metadata>
  <g
     inkscape:label="Layer 1"
     inkscape:groupmode="layer"
     id="layer1"
     transform="translate(0,-308.26772)">
    <flowRoot
       xml:space="preserve"
       id="flowRoot3344"
       style="font-style:normal;font-weight:normal;font-size:40px;line-height:125%;font-family:sans-serif;letter-spacing:0px;word-spacing:0px;writing-mode:lr-tb;fill:#000000;fill-opacity:1;stroke:none;stroke-width:1px;stroke-linecap:butt;stroke-linejoin:miter;stroke-opacity:1"
       transform="translate(-10.367033,361.64197)"><flowRegion
         id="flowRegion3346"><rect
           id="rect3348"
           width="375.86206"
           height="115.51727"
           x="56.896553"
           y="213.06001" /></flowRegion><flowPara
         id="flowPara3350">for y in 1 to 10000</flowPara><flowPara
         id="flowPara3352">        x = 5 + $y</flowPara></flowRoot>    <rect
       id="rect3354"
       width="244.82759"
       height="113.79311"
       x="570.70447"
       y="384.2421" />
    <rect
       y="537.66455"
       x="570.69336"
       height="113.79311"
       width="244.82759"
       id="rect3356" />
    <rect
       id="rect3360"
       width="244.82759"
       height="113.79311"
       x="571.5462"
       y="766.97491" />
    <path
       d="m 571.2771,132.60542 0,-56.586723 121.81264,0 121.81265,0 0,56.586723 0,56.58672 -121.81265,0 -121.81264,0 0,-56.58672 z"
       id="path3362"
       inkscape:connector-curvature="0"
       transform="translate(0,308.26772)"
       style="fill:#ffffff" />
    <path
       style="fill:#ffffff"
       d="m 571.2771,286.38308 0,-56.58672 121.81264,0 121.81265,0 0,56.58672 0,56.58672 -121.81265,0 -121.81264,0 0,-56.58672 z"
       id="path3364"
       inkscape:connector-curvature="0"
       transform="translate(0,308.26772)" />
    <path
       style="fill:#ffffff"
       d="m 572.14102,515.32173 0,-56.58672 121.81264,0 121.81264,0 0,56.58672 0,56.58672 -121.81264,0 -121.81264,0 0,-56.58672 z"
       id="path3366"
       inkscape:connector-curvature="0"
       transform="translate(0,308.26772)" />
    <text
       xml:space="preserve"
       style="font-style:normal;font-weight:normal;font-size:40px;line-height:125%;font-family:sans-serif;letter-spacing:0px;word-spacing:0px;writing-mode:lr-tb;fill:#000000;fill-opacity:1;stroke:none;stroke-width:1px;stroke-linecap:butt;stroke-linejoin:miter;stroke-opacity:1"
       x="679.9046"
       y="454.52997"
       id="text3368"
       sodipodi:linespacing="125%"><tspan
         sodipodi:role="line"
         id="tspan3370"
         x="679.9046"
         y="454.52997">1</tspan></text>
    <text
       xml:space="preserve"
       style="font-style:normal;font-weight:normal;font-size:40px;line-height:125%;font-family:sans-serif;letter-spacing:0px;word-spacing:0px;writing-mode:lr-tb;fill:#000000;fill-opacity:1;stroke:none;stroke-width:1px;stroke-linecap:butt;stroke-linejoin:miter;stroke-opacity:1"
       x="679.9046"
       y="609.17157"
       id="text3372"
       sodipodi:linespacing="125%"><tspan
         sodipodi:role="line"
         id="tspan3374"
         x="679.9046"
         y="609.17157">2</tspan></text>
    <text
       xml:space="preserve"
       style="font-style:normal;font-weight:normal;font-size:40px;line-height:125%;font-family:sans-serif;letter-spacing:0px;word-spacing:0px;writing-mode:lr-tb;fill:#000000;fill-opacity:1;stroke:none;stroke-width:1px;stroke-linecap:butt;stroke-linejoin:miter;stroke-opacity:1;image-rendering:auto"
       x="679.04065"
       y="838.11017"
       id="text3376"
       sodipodi:linespacing="125%"><tspan
         sodipodi:role="line"
         id="tspan3378"
         x="679.04065"
         y="838.11017">N</tspan></text>
    <text
       xml:space="preserve"
       style="font-style:normal;font-weight:normal;font-size:40px;line-height:125%;font-family:sans-serif;letter-spacing:0px;word-spacing:0px;writing-mode:lr-tb;fill:#000000;fill-opacity:1;stroke:none;stroke-width:1px;stroke-linecap:butt;stroke-linejoin:miter;stroke-opacity:1"
       x="590.05695"
       y="364.68231"
       id="text3380"
       sodipodi:linespacing="125%"><tspan
         sodipodi:role="line"
         id="tspan3382"
         x="590.05695"
         y="364.68231">Processors</tspan></text>
    <text
       xml:space="preserve"
       style="font-style:normal;font-weight:normal;font-size:40px;line-height:125%;font-family:sans-serif;letter-spacing:0px;word-spacing:0px;writing-mode:lr-tb;fill:#000000;fill-opacity:1;stroke:none;stroke-width:1px;stroke-linecap:butt;stroke-linejoin:miter;stroke-opacity:1"
       x="675.58502"
       y="718.88934"
       id="text3384"
       sodipodi:linespacing="125%"><tspan
         sodipodi:role="line"
         id="tspan3386"
         x="675.58502"
         y="718.88934">...</tspan></text>
    <text
       xml:space="preserve"
       style="font-style:normal;font-weight:normal;font-size:22.5px;line-height:125%;font-family:'decsess.pcf';letter-spacing:0px;word-spacing:0px;writing-mode:lr;fill:#000000;fill-opacity:1;stroke:none;stroke-width:1px;stroke-linecap:butt;stroke-linejoin:miter;stroke-opacity:1;-inkscape-font-specification:'decsess.pcf, Normal';font-stretch:normal;font-variant:normal;text-anchor:start;text-align:start;"
       x="828"
       y="382.36221"
       id="text3388"
       sodipodi:linespacing="125%"><tspan
         sodipodi:role="line"
         id="tspan3392"></tspan></text>
    <text
       xml:space="preserve"
       style="font-style:normal;font-weight:normal;font-size:40px;line-height:125%;font-family:sans-serif;letter-spacing:0px;word-spacing:0px;writing-mode:lr-tb;fill:#000000;fill-opacity:1;stroke:none;stroke-width:1px;stroke-linecap:butt;stroke-linejoin:miter;stroke-opacity:1"
       x="828"
       y="388.36221"
       id="text3394"
       sodipodi:linespacing="125%"><tspan
         sodipodi:role="line"
         id="tspan3396"
         x="828"
         y="388.36221" /></text>
    <flowRoot
       xml:space="preserve"
       id="flowRoot3398"
       style="font-style:normal;font-variant:normal;font-weight:normal;font-stretch:normal;font-size:22.5px;line-height:125%;font-family:'decsess.pcf';-inkscape-font-specification:'decsess.pcf, Normal';text-align:start;letter-spacing:0px;word-spacing:0px;writing-mode:lr-tb;text-anchor:start;fill:#000000;fill-opacity:1;stroke:none;stroke-width:1px;stroke-linecap:butt;stroke-linejoin:miter;stroke-opacity:1"
       transform="translate(0,308.26772)"><flowRegion
         id="flowRegion3400"><rect
           id="rect3402"
           width="61.769047"
           height="28"
           x="821"
           y="67.094482"
           style="font-style:normal;font-variant:normal;font-weight:normal;font-stretch:normal;font-size:22.5px;line-height:125%;font-family:'decsess.pcf';-inkscape-font-specification:'decsess.pcf, Normal';text-align:start;writing-mode:lr-tb;text-anchor:start" /></flowRegion><flowPara
         id="flowPara3406">2000</flowPara></flowRoot>    <text
       xml:space="preserve"
       style="font-style:normal;font-weight:normal;font-size:40px;line-height:125%;font-family:sans-serif;letter-spacing:0px;word-spacing:0px;writing-mode:lr-tb;fill:#000000;fill-opacity:1;stroke:none;stroke-width:1px;stroke-linecap:butt;stroke-linejoin:miter;stroke-opacity:1"
       x="836"
       y="462.36221"
       id="text3408"
       sodipodi:linespacing="125%"><tspan
         sodipodi:role="line"
         id="tspan3410"
         x="836"
         y="462.36221" /></text>
    <text
       xml:space="preserve"
       style="font-style:normal;font-variant:normal;font-weight:normal;font-stretch:normal;font-size:22.5px;line-height:125%;font-family:'decsess.pcf';-inkscape-font-specification:'decsess.pcf, Normal';text-align:start;letter-spacing:0px;word-spacing:0px;writing-mode:lr-tb;text-anchor:start;fill:#000000;fill-opacity:1;stroke:none;stroke-width:1px;stroke-linecap:butt;stroke-linejoin:miter;stroke-opacity:1"
       x="821.5874"
       y="495.99811"
       id="text3412"
       sodipodi:linespacing="125%"><tspan
         sodipodi:role="line"
         id="tspan3414"
         x="821.5874"
         y="495.99811">2500</tspan></text>
    <text
       xml:space="preserve"
       style="font-style:normal;font-variant:normal;font-weight:normal;font-stretch:normal;font-size:20px;line-height:125%;font-family:'decsess.pcf';-inkscape-font-specification:'decsess.pcf, Normal';text-align:start;letter-spacing:0px;word-spacing:0px;writing-mode:lr-tb;text-anchor:start;fill:#000000;fill-opacity:1;stroke:none;stroke-width:1px;stroke-linecap:butt;stroke-linejoin:miter;stroke-opacity:1"
       x="822.45129"
       y="552.15283"
       id="text3416"
       sodipodi:linespacing="125%"><tspan
         sodipodi:role="line"
         id="tspan3418"
         x="822.45129"
         y="552.15283">1</tspan></text>
    <text
       xml:space="preserve"
       style="font-style:normal;font-variant:normal;font-weight:normal;font-stretch:normal;font-size:20px;line-height:125%;font-family:'decsess.pcf';-inkscape-font-specification:'decsess.pcf, Normal';text-align:start;letter-spacing:0px;word-spacing:0px;writing-mode:lr-tb;text-anchor:start;fill:#000000;fill-opacity:1;stroke:none;stroke-width:1px;stroke-linecap:butt;stroke-linejoin:miter;stroke-opacity:1"
       x="820.72345"
       y="649.77576"
       id="text3420"
       sodipodi:linespacing="125%"><tspan
         sodipodi:role="line"
         id="tspan3422"
         x="820.72345"
         y="649.77576">500</tspan></text>
    <text
       xml:space="preserve"
       style="font-style:normal;font-variant:normal;font-weight:normal;font-stretch:normal;font-size:20px;line-height:125%;font-family:'decsess.pcf';-inkscape-font-specification:'decsess.pcf, Normal';text-align:start;letter-spacing:0px;word-spacing:0px;writing-mode:lr-tb;text-anchor:start;fill:#000000;fill-opacity:1;stroke:none;stroke-width:1px;stroke-linecap:butt;stroke-linejoin:miter;stroke-opacity:1"
       x="818.99561"
       y="780.22754"
       id="text3424"
       sodipodi:linespacing="125%"><tspan
         sodipodi:role="line"
         id="tspan3426"
         x="818.99561"
         y="780.22754">7501</tspan></text>
    <text
       xml:space="preserve"
       style="font-style:normal;font-variant:normal;font-weight:normal;font-stretch:normal;font-size:20px;line-height:125%;font-family:'decsess.pcf';-inkscape-font-specification:'decsess.pcf, Normal';text-align:start;letter-spacing:0px;word-spacing:0px;writing-mode:lr-tb;text-anchor:start;fill:#000000;fill-opacity:1;stroke:none;stroke-width:1px;stroke-linecap:butt;stroke-linejoin:miter;stroke-opacity:1"
       x="822.45129"
       y="880.4422"
       id="text3428"
       sodipodi:linespacing="125%"><tspan
         sodipodi:role="line"
         id="tspan3430"
         x="822.45129"
         y="880.4422">8000</tspan></text>
    <path
       style="fill:#ffffff"
       d="m 571.61492,132.9154 0,-56.154759 121.38068,0 121.38069,0 0,56.154759 0,56.15477 -121.38069,0 -121.38068,0 0,-56.15477 z m 130.45184,11.66292 c 0,-1.88923 -0.37591,-2.1598 -3.00063,-2.1598 l -3.00061,0 -0.23908,-12.74281 -0.23908,-12.74282 -3.45567,0.0632 c -6.04485,0.11061 -8.20724,1.01146 -8.20724,3.41912 0,2.02863 0.20046,2.1215 3.45568,1.60097 l 3.45568,-0.55259 0,10.47745 0,10.47745 -3.02372,0 c -2.64936,0 -3.02372,0.2674 -3.02372,2.1598 0,2.1598 0,2.1598 8.63919,2.1598 8.6392,0 8.6392,0 8.6392,-2.1598 z"
       id="path3438"
       inkscape:connector-curvature="0"
       transform="translate(0,308.26772)" />
    <path
       style="fill:#e4e4e4"
       d="m 571.26936,132.9154 0,-56.154759 121.81264,0 121.81264,0 0,56.154759 0,56.15477 -121.81264,0 -121.81264,0 0,-56.15477 z m 130.45183,11.66292 c 0,-1.8924 -0.37436,-2.1598 -3.02372,-2.1598 l -3.02372,0 0,-13.07009 0,-13.07009 -4.46902,0.59283 c -5.52754,0.73326 -7.81663,1.89932 -7.44341,3.79167 0.22601,1.14596 1.05977,1.39214 3.93975,1.1633 l 3.65309,-0.29026 0,10.44132 0,10.44132 -2.97273,0 c -3.17353,0 -4.39016,1.03289 -3.61034,3.06509 0.37427,0.97531 2.31398,1.25451 8.71576,1.25451 8.20735,0 8.23434,-0.007 8.23434,-2.1598 z"
       id="path3448"
       inkscape:connector-curvature="0"
       transform="translate(0,308.26772)" />
    <path
       style="fill:#e4e4e4"
       d="m 571.26936,286.69306 0,-56.15476 121.81264,0 121.81264,0 0,56.15476 0,56.15477 -121.81264,0 -121.81264,0 0,-56.15477 z m 130.45183,12.52684 c 0,-2.11604 -0.13425,-2.1598 -6.6254,-2.1598 l -6.6254,0 6.07855,-6.26884 c 6.65297,-6.86122 8.08236,-10.18236 6.26782,-14.56303 -1.35421,-3.26936 -4.85263,-5.08572 -9.79542,-5.08572 -5.66122,0 -8.30638,1.23121 -8.30638,3.86626 0,1.19965 0.0972,2.17697 0.21598,2.17183 0.11879,-0.005 2.11363,-0.58505 4.43298,-1.28868 5.56876,-1.68942 8.61409,-0.44414 9.01294,3.6855 0.23983,2.48327 -0.53324,3.64734 -6.69538,10.08176 -5.02329,5.24525 -6.96652,7.89445 -6.96652,9.49743 l 0,2.22308 9.50312,0 9.50311,0 0,-2.15979 z"
       id="path3450"
       inkscape:connector-curvature="0"
       transform="translate(0,308.26772)" />
    <path
       style="fill:#d2e5cc"
       d="m 572.13328,515.63171 0,-56.15476 121.81264,0 121.81264,0 0,56.15476 0,56.15477 -121.81264,0 -121.81264,0 0,-56.15477 z m 115.09218,3.26881 0.24106,-11.41782 6.01761,11.41782 c 5.85479,11.10893 6.09436,11.41783 8.85517,11.41783 l 2.83757,0 0,-15.1186 0,-15.11859 -2.13472,0 -2.13473,0 -0.24105,11.29274 -0.24106,11.29273 -5.95163,-11.29273 c -5.82921,-11.06045 -6.01135,-11.29274 -8.85517,-11.29274 l -2.90355,0 0,15.11859 0,15.1186 2.13472,0 2.13473,0 0.24105,-11.41783 z"
       id="path3452"
       inkscape:connector-curvature="0"
       transform="translate(0,308.26772)" />
    <path
       style="fill:#d2e5cc"
       d="m 571.47908,286.47708 0.22224,-56.37074 121.59666,-0.21897 121.59666,-0.21897 0,56.58972 0,56.58971 -121.8189,0 -121.8189,0 0.22224,-56.37075 z m 130.24211,12.74282 c 0,-2.11578 -0.13486,-2.1598 -6.61633,-2.1598 l -6.61633,0 5.18858,-5.40338 c 8.76289,-9.12563 9.89024,-13.76063 4.45861,-18.33105 -4.54265,-3.82239 -15.42076,-2.4952 -15.42076,1.88142 0,1.72035 0.31202,2.04214 1.51186,1.55923 0.83152,-0.33466 2.67815,-0.78341 4.10362,-0.99722 1.42547,-0.2138 3.06341,-0.54703 3.63987,-0.74051 1.08268,-0.36338 4.56736,3.44848 4.56736,4.99618 0,1.60505 -5.85554,9.64576 -9.8629,13.54354 -2.43153,2.36505 -3.95981,4.61568 -3.95981,5.83146 0,1.94396 0.17263,1.97992 9.50312,1.97992 l 9.50311,0 0,-2.15979 z"
       id="path3454"
       inkscape:connector-curvature="0"
       transform="translate(0,308.26772)" />
    <path
       style="fill:#e8eee6"
       d="m 571.26936,132.48344 0,-56.586719 121.81264,0 121.81264,0 0,56.586719 0,56.58673 -121.81264,0 -121.81264,0 0,-56.58673 z m 130.45183,12.09488 c 0,-1.8924 -0.37436,-2.1598 -3.02372,-2.1598 l -3.02372,0 0,-13.02744 0,-13.02743 -2.37577,0.44238 c -1.30668,0.24331 -3.83365,0.68058 -5.61548,0.97171 -2.45819,0.40164 -3.2397,0.93669 -3.2397,2.21802 0,1.39419 0.60266,1.68869 3.45568,1.68869 l 3.45568,0 0,10.36703 0,10.36704 -2.97273,0 c -3.17353,0 -4.39016,1.03289 -3.61034,3.06509 0.37427,0.97531 2.31398,1.25451 8.71576,1.25451 8.20735,0 8.23434,-0.007 8.23434,-2.1598 z"
       id="path3456"
       inkscape:connector-curvature="0"
       transform="translate(0,308.26772)" />
    <path
       style="fill:#e8eee6"
       d="m 571.26936,286.2611 0,-56.58672 121.81264,0 121.81264,0 0,56.58672 0,56.58673 -121.81264,0 -121.81264,0 0,-56.58673 z m 130.29594,13.17478 c -0.25363,-1.78586 -0.79012,-1.96455 -6.60195,-2.19891 l -6.32589,-0.25509 5.34952,-5.71865 c 2.94224,-3.14526 5.85073,-6.91821 6.46331,-8.38433 2.51937,-6.02969 -1.10568,-10.96182 -8.44155,-11.4853 -5.31645,-0.37938 -8.73711,1.0824 -9.14216,3.90677 -0.24981,1.74195 -0.0146,1.89207 2.1598,1.37869 1.34208,-0.31686 2.7408,-0.84601 3.10828,-1.1759 1.31721,-1.18248 5.9259,0.1947 7.21001,2.15451 1.57516,2.404 1.28914,4.75366 -0.76527,6.28677 -0.83947,0.62645 -1.31725,1.47728 -1.06173,1.89072 0.25552,0.41344 -0.0295,1.06718 -0.63349,1.45275 -2.78209,1.77616 -10.16922,10.72001 -10.16922,12.31223 0,1.68962 0.48331,1.77955 9.5632,1.77955 9.42325,0 9.55917,-0.0284 9.28714,-1.94381 z"
       id="path3458"
       inkscape:connector-curvature="0"
       transform="translate(0,308.26772)" />
    <path
       style="fill:#e0e1f3"
       d="m 572.13328,515.63171 0,-56.15476 121.81264,0 121.81264,0 0,56.15476 0,56.15477 -121.81264,0 -121.81264,0 0,-56.15477 z m 114.90128,10.92934 c 0,-2.06651 0.25363,-6.7577 0.56362,-10.42487 l 0.56361,-6.66758 2.43277,4.16146 c 1.33802,2.2888 3.27562,5.91089 4.30576,8.04909 3.23518,6.715 4.95991,8.6392 7.74361,8.6392 l 2.53294,0 0,-15.17868 0,-15.17868 -1.94382,0.27607 c -1.84724,0.26235 -1.98083,0.80258 -2.68879,10.87309 l -0.74497,10.59703 -2.55305,-5.41351 c -1.40418,-2.97743 -2.91799,-5.54391 -3.36403,-5.70328 -0.44604,-0.15937 -0.59123,-0.64533 -0.32265,-1.0799 0.26858,-0.43457 0.11877,-0.79013 -0.33292,-0.79013 -0.45169,0 -1.04933,-0.90874 -1.32809,-2.01943 -0.91006,-3.62594 -3.9196,-6.61977 -6.65453,-6.61977 l -2.52906,0 0,15.11859 0,15.1186 2.1598,0 c 1.97272,0 2.1598,-0.32546 2.1598,-3.7573 z"
       id="path3460"
       inkscape:connector-curvature="0"
       transform="translate(0,308.26772)" />
    <path
       style="fill:#e0e1f3"
       d="m 571.26936,286.2611 0,-56.58672 121.81264,0 121.81264,0 0,56.58672 0,56.58673 -121.81264,0 -121.81264,0 0,-56.58673 z m 130.45183,13.48319 c 0,-2.13582 -1.61942,-2.68419 -7.92682,-2.68419 l -5.19376,0 5.6462,-6.09841 c 6.25373,-6.75461 8.02142,-10.49258 6.65793,-14.07886 -2.52972,-6.65365 -17.13986,-7.86252 -18.04982,-1.49347 -0.24155,1.69073 -0.0177,1.93039 1.29588,1.38731 4.4072,-1.8221 8.25223,-2.41314 8.89829,-1.36781 0.36192,0.58561 0.99398,0.93435 1.40457,0.77498 0.41059,-0.15937 1.1188,0.76878 1.5738,2.06257 1.09576,3.11579 -0.14919,5.35076 -7.48104,13.43015 -5.5636,6.13085 -6.5459,7.8368 -5.25551,9.12719 0.31677,0.31677 4.59317,0.57594 9.50312,0.57594 8.18303,0 8.92716,-0.13632 8.92716,-1.6354 z"
       id="path3462"
       inkscape:connector-curvature="0"
       transform="translate(0,308.26772)" />
    <path
       style="fill:#e0e1f3"
       d="m 571.26936,132.48344 0,-56.586719 121.81264,0 121.81264,0 0,56.586719 0,56.58673 -121.81264,0 -121.81264,0 0,-56.58673 z m 130.01987,12.09488 c 0,-1.31488 -0.66561,-1.79214 -2.78495,-1.99686 l -2.78494,-0.26902 -0.23877,-12.68977 -0.23877,-12.68978 -2.59176,0.22176 c -6.64506,0.56858 -8.20724,1.12663 -8.20724,2.93185 0,1.55499 0.43588,1.73787 3.45568,1.44988 l 3.45568,-0.32955 0,10.60584 0,10.60585 -3.05083,0 c -2.00038,0 -3.23358,0.47622 -3.58157,1.38307 -0.87002,2.26723 1.46767,2.95784 9.22416,2.725 6.69389,-0.20094 7.34331,-0.37324 7.34331,-1.94827 z"
       id="path3464"
       inkscape:connector-curvature="0"
       transform="translate(0,308.26772)" />
    <text
       xml:space="preserve"
       style="font-style:normal;font-variant:normal;font-weight:normal;font-stretch:normal;font-size:20px;line-height:125%;font-family:'decsess.pcf';-inkscape-font-specification:'decsess.pcf, Normal';text-align:start;letter-spacing:0px;word-spacing:0px;writing-mode:lr-tb;text-anchor:start;fill:#000000;fill-opacity:1;stroke:none;stroke-width:1px;stroke-linecap:butt;stroke-linejoin:miter;stroke-opacity:1"
       x="865.64728"
       y="442.43509"
       id="text3485"
       sodipodi:linespacing="125%"><tspan
         sodipodi:role="line"
         id="tspan3487"
         x="865.64728"
         y="442.43509">x = 2505</tspan></text>
    <text
       xml:space="preserve"
       style="font-style:normal;font-variant:normal;font-weight:normal;font-stretch:normal;font-size:20px;line-height:125%;font-family:'decsess.pcf';-inkscape-font-specification:'decsess.pcf, Normal';text-align:start;letter-spacing:0px;word-spacing:0px;writing-mode:lr-tb;text-anchor:start;fill:#000000;fill-opacity:1;stroke:none;stroke-width:1px;stroke-linecap:butt;stroke-linejoin:miter;stroke-opacity:1"
       x="865.64728"
       y="598.8045"
       id="text3489"
       sodipodi:linespacing="125%"><tspan
         sodipodi:role="line"
         id="tspan3491"
         x="865.64728"
         y="598.8045">x = 505</tspan></text>
    <text
       xml:space="preserve"
       style="font-style:normal;font-variant:normal;font-weight:normal;font-stretch:normal;font-size:20px;line-height:125%;font-family:'decsess.pcf';-inkscape-font-specification:'decsess.pcf, Normal';text-align:start;letter-spacing:0px;word-spacing:0px;writing-mode:lr-tb;text-anchor:start;fill:#000000;fill-opacity:1;stroke:none;stroke-width:1px;stroke-linecap:butt;stroke-linejoin:miter;stroke-opacity:1"
       x="867.37512"
       y="835.51843"
       id="text3493"
       sodipodi:linespacing="125%"><tspan
         sodipodi:role="line"
         id="tspan3495"
         x="867.37512"
         y="835.51843">x = 8005</tspan></text>
  </g>
</svg>
